<svg xmlns="http://www.w3.org/2000/svg" width="1200" height="420" viewBox="0 0 1200 420" role="img" aria-labelledby="title desc">
  <title id="title">Back up a term</title><desc id="desc">Choose an outside folder, select the term, and create the snapshot.</desc>
  <defs><marker id="a" markerWidth="10" markerHeight="10" refX="8" refY="3" orient="auto"><path d="M0,0 L0,6 L9,3 z" fill="#4e8891"/></marker></defs><rect width="1200" height="420" rx="22" fill="#f7f9fa"/>
  <g font-family="Segoe UI,Arial,sans-serif" fill="#233044"><rect x="45" y="45" width="1110" height="330" rx="16" fill="#fff" stroke="#d3dce2" stroke-width="3"/><text x="80" y="92" font-size="25" font-weight="700" fill="#1e4f70">Term backup and restore</text><text x="80" y="138" font-size="16" fill="#607080">Backup folder</text><rect x="80" y="151" width="680" height="51" rx="8" fill="#fff" stroke="#9fb0bb" stroke-width="2"/><text x="98" y="184" font-size="18">E:\CAM term backups</text><rect x="775" y="151" width="150" height="51" rx="8" fill="#edf2f5" stroke="#9fb0bb" stroke-width="2"/><text x="850" y="184" text-anchor="middle" font-size="18">Browse...</text>
  <text x="80" y="253" font-size="16" fill="#607080">Term to back up</text><rect x="80" y="266" width="310" height="56" rx="8" fill="#fff" stroke="#9fb0bb" stroke-width="2"/><text x="100" y="301" font-size="20">Term 2</text><path d="M351 286l12 12 12-12" fill="none" stroke="#607080" stroke-width="3"/><path d="M415 294h72" stroke="#4e8891" stroke-width="5" marker-end="url(#a)"/><rect x="505" y="266" width="280" height="56" rx="8" fill="#b24d45"/><text x="645" y="301" text-anchor="middle" font-size="20" fill="#fff" font-weight="700">Back up term</text><g transform="translate(850 244)"><path d="M0 20h110l20 24h108v78H0z" fill="#f1d9a9" stroke="#c79c4b" stroke-width="3"/><text x="119" y="83" text-anchor="middle" font-size="17" font-weight="700">Outside CAM Data</text></g></g>
</svg>
