<svg xmlns="http://www.w3.org/2000/svg" width="1200" height="420" viewBox="0 0 1200 420" role="img" aria-labelledby="title desc">
  <title id="title">Grade an exam</title><desc id="desc">Scans move through setup, question grading, CSV export, and CAM.</desc>
  <defs><marker id="a" markerWidth="10" markerHeight="10" refX="8" refY="3" orient="auto"><path d="M0,0 L0,6 L9,3 z" fill="#4e8891"/></marker></defs><rect width="1200" height="420" rx="22" fill="#f7f9fa"/>
  <g font-family="Segoe UI,Arial,sans-serif" fill="#233044" text-anchor="middle"><g transform="translate(30 82)"><rect width="210" height="250" rx="16" fill="#fff" stroke="#d3dce2" stroke-width="3"/><path d="M65 38h80v100H65z" fill="#edf2f5" stroke="#4e8891" stroke-width="3"/><path d="M80 66h50M80 86h50M80 106h38" stroke="#9bb2bf" stroke-width="4"/><text x="105" y="178" font-size="22" font-weight="700">Scanned PDFs</text><text x="105" y="211" font-size="16" fill="#607080">same page order</text></g><path d="M250 207h45" stroke="#4e8891" stroke-width="5" marker-end="url(#a)"/>
  <g transform="translate(305 82)"><rect width="210" height="250" rx="16" fill="#fff" stroke="#d3dce2" stroke-width="3"/><rect x="44" y="35" width="122" height="105" fill="#edf2f5" stroke="#4e8891" stroke-width="3"/><path d="M44 70h122M85 35v105M125 35v105" stroke="#b24d45" stroke-width="2"/><text x="105" y="178" font-size="22" font-weight="700">Exam setup</text><text x="105" y="211" font-size="16" fill="#607080">frame each question</text></g><path d="M525 207h45" stroke="#4e8891" stroke-width="5" marker-end="url(#a)"/>
  <g transform="translate(580 82)"><rect width="210" height="250" rx="16" fill="#fff" stroke="#d3dce2" stroke-width="3"/><g transform="translate(34 38)"><rect width="62" height="84" rx="6" fill="#edf2f5" stroke="#4e8891" stroke-width="2"/><rect x="76" width="62" height="84" rx="6" fill="#edf2f5" stroke="#4e8891" stroke-width="2"/><text x="31" y="53" font-size="26" font-weight="700">6</text><text x="107" y="53" font-size="26" font-weight="700">7</text></g><text x="105" y="178" font-size="22" font-weight="700">Grade by question</text><text x="105" y="211" font-size="16" fill="#607080">across the class</text></g><path d="M800 207h45" stroke="#4e8891" stroke-width="5" marker-end="url(#a)"/>
  <g transform="translate(855 82)"><rect width="315" height="250" rx="16" fill="#fff" stroke="#d3dce2" stroke-width="3"/><rect x="52" y="38" width="211" height="52" rx="8" fill="#b24d45"/><text x="157" y="71" font-size="19" fill="#fff" font-weight="700">Export CSV</text><path d="M157 106v32" stroke="#4e8891" stroke-width="4" marker-end="url(#a)"/><rect x="52" y="149" width="211" height="52" rx="8" fill="#1e4f70"/><text x="157" y="182" font-size="19" fill="#fff" font-weight="700">Marks appear in CAM</text></g></g>
</svg>
