<svg xmlns="http://www.w3.org/2000/svg" width="1200" height="420" viewBox="0 0 1200 420" role="img" aria-labelledby="title desc">
  <title id="title">Reports and exports</title><desc id="desc">Build an Excel master or report pack, then download it.</desc><rect width="1200" height="420" rx="22" fill="#f7f9fa"/>
  <g font-family="Segoe UI,Arial,sans-serif" fill="#233044"><text x="48" y="66" font-size="27" font-weight="700" fill="#1e4f70">System deliverables</text><text x="48" y="98" font-size="17" fill="#607080">Active class: Year 8 Art</text>
  <g transform="translate(48 125)"><rect width="335" height="210" rx="15" fill="#fff" stroke="#d3dce2" stroke-width="3"/><rect x="24" y="24" width="287" height="54" rx="8" fill="#1e4f70"/><text x="167" y="58" text-anchor="middle" font-size="19" fill="#fff" font-weight="700">Build Excel master</text><g transform="translate(105 98)"><rect width="125" height="84" rx="7" fill="#e7f2e9" stroke="#4f8c5b" stroke-width="3"/><text x="62" y="52" text-anchor="middle" font-size="25" font-weight="700" fill="#397044">XLSX</text></g></g>
  <g transform="translate(432 125)"><rect width="335" height="210" rx="15" fill="#fff" stroke="#d3dce2" stroke-width="3"/><rect x="24" y="24" width="287" height="54" rx="8" fill="#1e4f70"/><text x="167" y="58" text-anchor="middle" font-size="19" fill="#fff" font-weight="700">Build report-card pack</text><g transform="translate(105 98)"><rect width="125" height="84" rx="7" fill="#e8eef7" stroke="#5277a3" stroke-width="3"/><text x="62" y="52" text-anchor="middle" font-size="25" font-weight="700" fill="#385d87">DOCX</text></g></g>
  <g transform="translate(816 125)"><rect width="335" height="210" rx="15" fill="#fff" stroke="#d3dce2" stroke-width="3"/><text x="167" y="51" text-anchor="middle" font-size="18" fill="#607080">After CAM finishes building</text><rect x="24" y="77" width="287" height="72" rx="9" fill="#b24d45"/><text x="167" y="121" text-anchor="middle" font-size="21" fill="#fff" font-weight="700">Download the file</text><text x="167" y="182" text-anchor="middle" font-size="17">Choose where to save it</text></g></g>
</svg>
